<svg xmlns="http://www.w3.org/2000/svg" width="279.921" height="495.51" viewBox="0 0 279.921 495.51">
  <g id="layer1" transform="translate(-811.192 -270.979)">
    <g id="g3477" transform="translate(815.192 274.98)">
      <path id="path4337-3" d="M1000.922,377.324c-21.56,23.008-35.062,56.524-34.538,88.05,1.1,65.88,30.791,90.819,78.278,181.49,17.106,39.9,34.961,82.117,51.94,152.039,2.359,10.314,4.662,19.895,5.727,20.724s3.365-8.784,5.727-19.1c16.979-69.922,34.834-112.106,51.939-152.006,47.488-90.671,77.184-115.61,78.278-181.489.524-31.526-13.012-65.076-34.571-88.084-24.627-26.283-61.771-45.734-101.373-46.547s-76.78,18.638-101.407,44.921Z" transform="translate(-966.369 -332.378)" fill="#2280c2" stroke="#fff" stroke-width="8"/>
      <path id="path3049" d="M52.013,0A52.013,52.013,0,1,1,0,52.013,52.013,52.013,0,0,1,52.013,0Z" transform="translate(83.961 83.439)" fill="#102a3c"/>
    </g>
  </g>
</svg>
