<svg xmlns="http://www.w3.org/2000/svg" width="245.473" height="491" viewBox="0 0 245.473 491">
  <g id="Grupo_7" data-name="Grupo 7" transform="translate(-614.764 -228)">
    <g id="Unión_1" data-name="Unión 1" transform="translate(2698 406)" fill="#989898">
      <path d="M -1960.499755859375 308.9999084472656 C -1963.987915039063 308.9999084472656 -1967.36669921875 308.3784484863281 -1970.542358398438 307.1527404785156 C -1973.590087890625 305.9764099121094 -1976.322509765625 304.2968139648438 -1978.663452148438 302.1606140136719 C -1983.394409179688 297.8433227539063 -1986 292.1324462890625 -1986 286.0799255371094 C -1986 285.9552307128906 -1985.998779296875 285.8266296386719 -1985.996459960938 285.6976623535156 L -1985.921508789063 281.6241149902344 L -1986 281.6241149902344 L -1986 3.999995946884155 L -1935.00048828125 3.999995946884155 L -1935.00048828125 281.6241149902344 L -1935.07470703125 281.6241149902344 L -1935.00390625 285.6976623535156 C -1935.001708984375 285.8221130371094 -1935.00048828125 285.9507446289063 -1935.00048828125 286.0799255371094 C -1935.00048828125 292.1324157714844 -1937.60595703125 297.8433227539063 -1942.337036132813 302.1606750488281 C -1944.677856445313 304.2968139648438 -1947.41015625 305.9764404296875 -1950.457763671875 307.1527404785156 C -1953.63330078125 308.3784484863281 -1957.011840820313 308.9999084472656 -1960.499755859375 308.9999084472656 Z" stroke="none"/>
      <path d="M -1960.499755859375 304.9999084472656 C -1948.64501953125 304.9999084472656 -1939.00048828125 296.5123901367188 -1939.00048828125 285.6241149902344 L -1939.00048828125 8.000003814697266 L -1982 8.000003814697266 L -1982 286.0798950195313 C -1982 296.5123901367188 -1972.355102539063 304.9999084472656 -1960.499755859375 304.9999084472656 M -1960.499755859375 312.9999084472656 C -1976.79248046875 312.9999084472656 -1990 300.9476013183594 -1990 286.0798950195313 C -1990 285.9274597167969 -1989.99853515625 285.7759399414063 -1989.995727539063 285.6241149902344 L -1990 285.6241149902344 L -1990 4.223632913635811e-06 L -1931.00048828125 4.223632913635811e-06 L -1931.00048828125 285.6241149902344 L -1931.004638671875 285.6241149902344 C -1931.001831054688 285.7759399414063 -1931.00048828125 285.9274597167969 -1931.00048828125 286.0798950195313 C -1931.00048828125 300.9476013183594 -1944.2080078125 312.9999084472656 -1960.499755859375 312.9999084472656 Z" stroke="none" fill="#fff"/>
    </g>
    <circle id="Elipse_3" data-name="Elipse 3" cx="118.736" cy="118.736" r="118.736" transform="translate(618.764 232)" fill="#afb42b" stroke="#fff" stroke-width="8"/>
  </g>
</svg>
